<svg xmlns="http://www.w3.org/2000/svg" width="25" height="25" viewBox="0 0 25 25"><g><g><path fill="#d8226b" d="M2.496-.005h20a2.5 2.5 0 0 1 2.5 2.5v20a2.5 2.5 0 0 1-2.5 2.5h-20a2.5 2.5 0 0 1-2.5-2.5v-20a2.5 2.5 0 0 1 2.5-2.5zM20 15.86V9.139a4.144 4.144 0 0 0-4.14-4.14H9.14A4.144 4.144 0 0 0 5 9.139v6.72A4.144 4.144 0 0 0 9.14 20h6.72A4.144 4.144 0 0 0 20 15.86zm-1.331 0c0 1.549-1.26 2.809-2.809 2.809H9.14a2.812 2.812 0 0 1-2.81-2.81V9.14A2.812 2.812 0 0 1 9.14 6.33h6.72A2.812 2.812 0 0 1 18.67 9.14zm-1.452-6.688a.981.981 0 0 0 0-1.38.98.98 0 0 0-1.38 0 .982.982 0 0 0-.286.69c0 .257.105.508.287.69a.983.983 0 0 0 .69.286.985.985 0 0 0 .69-.286zm-.852 3.327A3.87 3.87 0 0 0 12.5 8.634 3.87 3.87 0 0 0 8.635 12.5a3.87 3.87 0 0 0 3.865 3.866 3.87 3.87 0 0 0 3.865-3.866zm-1.33 0a2.537 2.537 0 0 1-2.535 2.534A2.537 2.537 0 0 1 9.966 12.5 2.537 2.537 0 0 1 12.5 9.965a2.537 2.537 0 0 1 2.534 2.534z"/></g></g></svg>