<svg xmlns="http://www.w3.org/2000/svg" width="25" height="25" viewBox="0 0 25 25"><g><g><path fill="#ee8208" d="M2.496-.005h20a2.5 2.5 0 0 1 2.5 2.5v20a2.5 2.5 0 0 1-2.5 2.5h-20a2.5 2.5 0 0 1-2.5-2.5v-20a2.5 2.5 0 0 1 2.5-2.5zm14.547 12.798a.863.863 0 0 0-.988-.394 1.53 1.53 0 0 0-.55.284c-1.679 1.13-3.975 1.098-5.647-.052a1.853 1.853 0 0 0-.258-.152c-.463-.219-.91-.117-1.175.265-.311.445-.272.877.121 1.254.102.098.217.182.328.27.897.701 1.945.988 3.107 1.109-.082.088-.135.148-.191.205-.852.855-1.704 1.71-2.559 2.564-.176.177-.303.373-.315.63-.019.381.217.76.588.94.35.17.707.116 1.008-.181.67-.66 1.336-1.325 1.991-2 .164-.169.253-.206.44-.012.637.668 1.301 1.312 1.952 1.968.17.172.362.294.607.31.388.027.783-.22.96-.598.16-.345.1-.712-.194-1.01-.86-.87-1.727-1.733-2.59-2.601-.06-.06-.105-.112-.201-.216.635-.077 1.278-.191 1.864-.418a4.57 4.57 0 0 0 1.642-1.062c.303-.312.306-.702.06-1.103zm-.537-4.135c.01-2.123-1.674-3.84-3.772-3.845A3.801 3.801 0 0 0 8.928 8.6c-.012 2.078 1.688 3.797 3.761 3.804 2.094.008 3.806-1.673 3.817-3.746zm-1.933-.053a1.845 1.845 0 0 1-1.844 1.862 1.849 1.849 0 0 1-1.868-1.84 1.85 1.85 0 0 1 1.858-1.876c1.03.001 1.85.822 1.854 1.854z"/></g></g></svg>