<svg xmlns="http://www.w3.org/2000/svg" width="25" height="26" viewBox="0 0 25 26"><g><g><path fill="#4c75a3" d="M2.559.87h20a2.5 2.5 0 0 1 2.5 2.5v20a2.5 2.5 0 0 1-2.5 2.5h-20a2.5 2.5 0 0 1-2.5-2.5v-20a2.5 2.5 0 0 1 2.5-2.5zM18.19 14.592c-.449-.439-.477-.693-.116-1.197.393-.553.817-1.084 1.213-1.633.371-.514.75-1.026.945-1.64.124-.393.014-.565-.386-.633a1.26 1.26 0 0 0-.21-.013l-2.377-.002c-.293-.006-.455.122-.559.383-.14.35-.283.702-.45 1.04-.377.77-.8 1.512-1.39 2.14-.132.14-.275.314-.494.242-.273-.1-.353-.55-.348-.702l-.002-2.747c-.054-.392-.14-.567-.529-.644h-2.47c-.329 0-.494.129-.67.335-.1.119-.132.197.077.237.41.077.64.343.701.754.1.658.092 1.317.035 1.978a1.87 1.87 0 0 1-.126.564c-.119.283-.312.34-.565.167-.23-.157-.39-.38-.548-.604a13.266 13.266 0 0 1-1.45-2.69c-.112-.274-.304-.44-.593-.445a57.647 57.647 0 0 0-2.14.002c-.43.006-.557.216-.382.605.777 1.73 1.64 3.412 2.769 4.943.58.786 1.245 1.48 2.104 1.973.974.558 2.022.725 3.127.673.517-.024.672-.16.696-.674.017-.354.056-.705.23-1.022.17-.31.43-.37.728-.176.149.097.274.22.393.35.29.319.57.647.874.956.378.386.827.613 1.39.566l2.186.001c.352-.024.535-.456.333-.848a4.298 4.298 0 0 0-.527-.76c-.446-.535-.971-.993-1.469-1.48z"/></g></g></svg>